<svg xmlns="http://www.w3.org/2000/svg" viewBox="0 0 300 300" xmlns:xlink="http://www.w3.org/1999/xlink"><defs><rect id="a" width="300" height="300"/></defs><g fill="none" fill-rule="evenodd"><mask id="b" fill="white"><use xlink:href="#a"/></mask><use fill="#FFFFFF" xlink:href="#a"/><g transform="translate(10 10)" mask="url(#b)"><polygon fill="#F8F8F8" points="56.396 21.898 25.103 21.898 25.103 258.656 56.396 258.656 56.396 280.18 .322 280.18 .322 .375 56.396 .375"/><polygon fill="#F8F8F8" points="223.349 .375 279.564 .375 279.564 280.18 223.349 280.18 223.349 258.656 254.784 258.656 254.784 21.898 223.349 21.898"/><path fill="#0000FF" d="M65.1 128.55h-2.28v19.04h2.27v2.2h-5v-23.44h5v2.2zM70.12 146v-17.06h5.45c.82 0 1.59.1 2.3.28.72.18 1.34.46 1.88.83a3.98 3.98 0 0 1 1.7 3.5c0 .85-.24 1.57-.7 2.17a4.49 4.49 0 0 1-1.87 1.39c.48.13.9.32 1.28.56a3.6 3.6 0 0 1 1.5 2.03 4.9 4.9 0 0 1-.25 3.47c-.3.62-.7 1.14-1.23 1.55-.53.42-1.15.73-1.88.95-.72.21-1.5.32-2.33.33h-5.85zm2.82-7.73v5.43h3.07c.45 0 .86-.07 1.22-.2.37-.13.69-.3.95-.54.27-.22.48-.5.63-.83a3.15 3.15 0 0 0 .03-2.26 2.32 2.32 0 0 0-.58-.85 2.6 2.6 0 0 0-.91-.55c-.36-.13-.76-.2-1.2-.2h-3.2zm0-2.15h2.7c.42 0 .81-.06 1.18-.17.36-.1.67-.26.94-.47a2.22 2.22 0 0 0 .87-1.8c0-.43-.08-.8-.23-1.1-.14-.3-.35-.55-.62-.75a2.7 2.7 0 0 0-.96-.43 5.5 5.5 0 0 0-1.2-.14h-2.68v4.86zm10.98-2.8h6.76v10.36h3.76V146H83.93v-2.32h3.94v-8.03h-3.94v-2.33zm3.7-3.28c0-.44.14-.8.43-1.08.28-.29.67-.43 1.18-.43.51 0 .92.14 1.2.43.29.28.43.64.43 1.08 0 .44-.14.8-.43 1.08-.28.29-.69.43-1.2.43-.5 0-.9-.14-1.18-.43a1.48 1.48 0 0 1-.43-1.08zm14.41.21v3.07h4.8v2.09h-4.8v6.08c0 .47.06.87.17 1.18.12.31.28.56.48.75.2.19.44.32.71.4.28.07.58.1.9.1.25 0 .5 0 .76-.04a20.32 20.32 0 0 0 1.44-.2l.53-.13.31 1.93c-.2.12-.45.23-.73.33-.29.1-.6.17-.93.24a12.11 12.11 0 0 1-2.12.2c-.64 0-1.22-.1-1.74-.27a3.49 3.49 0 0 1-2.25-2.25 6.05 6.05 0 0 1-.33-2.09v-6.23h-3.09v-2.09h3.1v-3.07h2.8zm23.56 9.21V146h-2.8v-17.06h5.7c.85 0 1.64.13 2.36.38.72.24 1.35.6 1.87 1.05.52.46.93 1.01 1.22 1.67.3.65.44 1.39.44 2.2a4.76 4.76 0 0 1-1.66 3.8c-.52.46-1.15.8-1.87 1.05-.72.24-1.5.36-2.36.37h-2.9zm0-2.27h2.9c.48 0 .9-.07 1.28-.22a2.58 2.58 0 0 0 1.57-1.53 3.48 3.48 0 0 0 0-2.4 2.72 2.72 0 0 0-1.57-1.6c-.38-.14-.8-.22-1.28-.23h-2.9v5.98zm9.65 2.35c0-.91.13-1.76.4-2.55.27-.8.66-1.47 1.16-2.05a5.32 5.32 0 0 1 1.85-1.36c.72-.33 1.55-.5 2.47-.5.93 0 1.76.17 2.49.5a5.3 5.3 0 0 1 1.85 1.36c.5.58.89 1.26 1.15 2.05.27.79.4 1.64.4 2.55v.25a8 8 0 0 1-.4 2.57 5.93 5.93 0 0 1-1.15 2.04 5.35 5.35 0 0 1-1.85 1.35c-.72.33-1.55.5-2.47.5-.93 0-1.76-.17-2.49-.5a5.34 5.34 0 0 1-1.85-1.35 6 6 0 0 1-1.16-2.04 7.9 7.9 0 0 1-.4-2.57v-.25zm2.8.25a7 7 0 0 0 .18 1.63c.12.5.3.95.56 1.34.25.39.58.7.97.91.39.23.85.34 1.4.34a2.69 2.69 0 0 0 2.32-1.25c.25-.39.44-.83.56-1.34a7 7 0 0 0 .18-1.63v-.25c0-.56-.06-1.1-.18-1.6-.12-.51-.3-.96-.56-1.34a2.7 2.7 0 0 0-2.35-1.25 2.7 2.7 0 0 0-2.35 1.25 4.2 4.2 0 0 0-.55 1.34 6.9 6.9 0 0 0-.18 1.6v.25zm10.45-.22c0-.96.11-1.84.35-2.64.23-.8.57-1.48 1-2.05a4.57 4.57 0 0 1 6.92-.41V128h2.81v18h-2.54l-.14-1.29a4.03 4.03 0 0 1-3.39 1.52 4.4 4.4 0 0 1-3.65-1.82 6.4 6.4 0 0 1-1-2.04 8.78 8.78 0 0 1-.36-2.56v-.24zm2.8.24c0 .57.05 1.1.16 1.6s.28.95.52 1.32c.24.38.55.67.92.89.37.21.81.32 1.33.32.64 0 1.16-.14 1.57-.42.4-.28.73-.65.97-1.12v-5.5a2.94 2.94 0 0 0-.98-1.1 2.72 2.72 0 0 0-1.54-.42c-.52 0-.97.11-1.34.33-.37.22-.68.52-.92.9-.23.39-.41.83-.52 1.34-.12.5-.17 1.05-.17 1.62v.24zm16.22 4.2a3.11 3.11 0 0 0 1.87-.62c.25-.2.44-.43.59-.7.14-.26.21-.55.2-.86h2.65c.01.6-.13 1.18-.41 1.71-.29.54-.67 1-1.16 1.4a5.81 5.81 0 0 1-3.71 1.3c-.98 0-1.83-.16-2.57-.5a5.2 5.2 0 0 1-1.84-1.37 5.87 5.87 0 0 1-1.1-2.03 8.01 8.01 0 0 1-.37-2.46v-.42c0-.87.12-1.69.36-2.46a5.3 5.3 0 0 1 2.95-3.4 6.02 6.02 0 0 1 2.56-.51c.76 0 1.47.11 2.12.35.66.23 1.22.56 1.7.98a4.42 4.42 0 0 1 1.47 3.44h-2.65a2.33 2.33 0 0 0-.73-1.77 2.75 2.75 0 0 0-1.94-.74c-.58 0-1.07.12-1.46.36-.4.23-.7.55-.94.93-.23.39-.4.83-.5 1.32-.1.5-.14 1-.14 1.5v.42c0 .52.04 1.02.14 1.51.1.5.27.94.5 1.32.23.39.55.7.94.94.39.24.88.36 1.47.36zm15.66 1.99a2.59 2.59 0 0 1-.2-.55 9.1 9.1 0 0 1-.13-.68 4.72 4.72 0 0 1-2.46 1.35 5.45 5.45 0 0 1-2.94-.17c-.54-.2-1-.46-1.4-.8a3.55 3.55 0 0 1-1.2-2.7c0-1.36.5-2.4 1.51-3.12 1.01-.72 2.47-1.08 4.36-1.08h2.05v-.83c0-.67-.23-1.2-.68-1.6-.46-.4-1.1-.59-1.92-.59-.38 0-.7.05-.99.14-.28.09-.51.2-.7.36-.19.16-.33.34-.42.56-.1.2-.14.43-.14.67h-2.8c0-.49.11-.97.34-1.43.23-.47.57-.88 1.01-1.24a5.2 5.2 0 0 1 1.64-.88 6.86 6.86 0 0 1 2.2-.32c.76 0 1.45.09 2.1.27.63.18 1.19.46 1.66.82.47.36.83.82 1.1 1.36.27.54.4 1.18.4 1.9v5.65c0 .56.04 1.06.12 1.52.08.46.2.85.36 1.2v.19h-2.87zm-3.38-2.03a3.7 3.7 0 0 0 2.53-.98c.18-.19.33-.38.44-.58v-2.37h-1.78c-1.14 0-1.99.18-2.53.55-.54.36-.81.89-.81 1.57 0 .25.04.5.13.72.08.22.21.41.39.57.17.16.4.29.67.38.27.1.59.14.96.14zm16.66-1.4c0-.21-.04-.4-.13-.58a1.25 1.25 0 0 0-.46-.48 3.92 3.92 0 0 0-.91-.4 13.1 13.1 0 0 0-1.49-.37 15 15 0 0 1-2.03-.56 6.6 6.6 0 0 1-1.56-.79c-.43-.3-.76-.66-1-1.06-.23-.4-.35-.87-.35-1.4 0-.52.12-1 .36-1.47.25-.47.6-.87 1.04-1.23.45-.35 1-.63 1.64-.83.65-.21 1.37-.31 2.16-.31.85 0 1.6.1 2.27.31.67.21 1.23.5 1.7.86.45.37.8.8 1.05 1.29s.37 1.02.37 1.58h-2.8c0-.25-.05-.5-.16-.72-.11-.23-.27-.44-.5-.62a2.47 2.47 0 0 0-.8-.42c-.33-.11-.7-.16-1.13-.16-.42 0-.78.04-1.1.13-.3.1-.56.2-.76.35a1.35 1.35 0 0 0-.6 1.12c0 .21.04.4.11.58.08.17.22.32.42.47.2.14.48.26.84.38.36.11.83.22 1.4.32.8.14 1.51.31 2.15.53.63.2 1.18.46 1.63.77a2.88 2.88 0 0 1 1.4 2.55c0 .57-.13 1.08-.39 1.55s-.62.87-1.1 1.21c-.48.34-1.05.6-1.72.8a8.3 8.3 0 0 1-2.24.28c-.92 0-1.74-.13-2.44-.37-.7-.25-1.3-.57-1.77-.97a4.1 4.1 0 0 1-1.08-1.36 3.51 3.51 0 0 1-.37-1.55h2.72a2 2 0 0 0 1 1.66c.27.17.59.3.93.37.34.07.7.1 1.04.1.87 0 1.53-.14 1.98-.43.46-.3.68-.67.68-1.13zm10.46-12.32v3.07h4.8v2.09h-4.8v6.08c0 .47.06.87.17 1.18.12.31.28.56.48.75.2.19.44.32.71.4.28.07.58.1.9.1.25 0 .5 0 .76-.04a20.32 20.32 0 0 0 1.44-.2l.53-.13.31 1.93c-.2.12-.45.23-.73.33-.29.1-.6.17-.93.24a12.11 12.11 0 0 1-2.12.2c-.64 0-1.22-.1-1.74-.27a3.49 3.49 0 0 1-2.25-2.25 6.05 6.05 0 0 1-.33-2.09v-6.23h-3.09v-2.09h3.1v-3.07h2.8zm10.37-3.9h5.02v23.44h-5.02v-2.2h2.29v-19.04h-2.29v-2.2z"/></g></g></svg>